<svg xmlns="http://www.w3.org/2000/svg" xmlns:xlink="http://www.w3.org/1999/xlink" viewBox="0,0,256,256" width="480px" height="480px" fill-rule="nonzero"><g fill-opacity="0.32157" fill="#000000" fill-rule="nonzero" stroke="none" stroke-width="1" stroke-linecap="butt" stroke-linejoin="miter" stroke-miterlimit="10" stroke-dasharray="" stroke-dashoffset="0" font-family="none" font-weight="none" font-size="none" text-anchor="none" style="mix-blend-mode: normal"><g transform="scale(8.53333,8.53333)"><path d="M13,4c-5.514,0 -10,3.813 -10,8.5c0,1.589 0.51138,3.12289 1.48438,4.46289l-0.58203,4.55273l4.02148,-1.68945c1.29194,0.64723 2.73779,1.01898 4.24805,1.125c0.73989,2.94425 3.81272,5.04883 7.32813,5.04883c1.45247,0 2.77221,-0.41137 3.92969,-1.03125l2.9082,1.63281l-0.44336,-3.76758c0.65931,-0.9499 1.10547,-2.04839 1.10547,-3.25195c0,-2.56399 -1.71994,-4.69401 -4.14648,-5.73242c0.08736,-0.4513 0.14648,-0.90234 0.14648,-1.34961c0,-4.687 -4.486,-8.5 -10,-8.5zM9.5625,9.17188c0.778,0 1.40625,0.6283 1.40625,1.4043c0,0.776 -0.62925,1.4082 -1.40625,1.4082c-0.777,0 -1.40625,-0.6302 -1.40625,-1.4082c0,-0.776 0.62925,-1.4043 1.40625,-1.4043zM17.23438,9.17188c0.777,0 1.40625,0.6283 1.40625,1.4043c0,0.778 -0.62925,1.4082 -1.40625,1.4082c-0.779,0 -1.40625,-0.6302 -1.40625,-1.4082c0,-0.777 0.62925,-1.4043 1.40625,-1.4043zM19.5,15.16602c3.13968,0 5.5,2.07241 5.5,4.41602c0,0.8883 -0.32231,1.71092 -0.9082,2.42383l-0.26953,0.32813l0.04883,0.42188l0.02148,0.17969l-0.44336,-0.24805l-0.50781,0.32813c-0.93402,0.60656 -2.12801,0.98438 -3.44141,0.98438c-3.13968,0 -5.5,-2.07436 -5.5,-4.41797c0,-2.34239 2.36051,-4.41601 5.5,-4.41601zM16.98633,17.42969c-0.59,0 -1.06445,0.47645 -1.06445,1.06445c0,0.588 0.47545,1.06641 1.06445,1.06641c0.587,0 1.06541,-0.47841 1.06641,-1.06641c0,-0.588 -0.47841,-1.06445 -1.06641,-1.06445zM22.0332,17.42969c-0.587,0 -1.06445,0.47645 -1.06445,1.06445c0,0.588 0.47645,1.06641 1.06445,1.06641c0.589,0 1.06836,-0.47841 1.06836,-1.06641c0,-0.588 -0.47936,-1.06445 -1.06836,-1.06445z"></path></g></g></svg>