<?xml version="1.0"?><svg xmlns="http://www.w3.org/2000/svg"  viewBox="0 0 30 30" width="480px" height="480px">    <path d="M 13 4 C 7.486 4 3 7.813 3 12.5 C 3 14.089 3.511375 15.622891 4.484375 16.962891 L 3.9023438 21.515625 L 7.9238281 19.826172 C 9.2157664 20.473405 10.661622 20.845152 12.171875 20.951172 C 12.911761 23.89542 15.984593 26 19.5 26 C 20.952474 26 22.272207 25.588631 23.429688 24.96875 L 26.337891 26.601562 L 25.894531 22.833984 C 26.553846 21.884082 27 20.785589 27 19.582031 C 27 17.01804 25.280055 14.888016 22.853516 13.849609 C 22.940874 13.398313 23 12.947264 23 12.5 C 23 7.813 18.514 4 13 4 z M 9.5625 9.171875 C 10.3405 9.171875 10.96875 9.8001719 10.96875 10.576172 C 10.96875 11.352172 10.3395 11.984375 9.5625 11.984375 C 8.7855 11.984375 8.15625 11.354172 8.15625 10.576172 C 8.15625 9.8001719 8.7855 9.171875 9.5625 9.171875 z M 17.234375 9.171875 C 18.011375 9.171875 18.640625 9.8001719 18.640625 10.576172 C 18.640625 11.354172 18.011375 11.984375 17.234375 11.984375 C 16.455375 11.984375 15.828125 11.354172 15.828125 10.576172 C 15.828125 9.7991719 16.457375 9.171875 17.234375 9.171875 z M 19.5 15.166016 C 22.639675 15.166016 25 17.238427 25 19.582031 C 25 20.470335 24.677694 21.29295 24.091797 22.005859 L 23.822266 22.333984 L 23.871094 22.755859 L 23.892578 22.935547 L 23.449219 22.6875 L 22.941406 23.015625 C 22.007387 23.622187 20.813397 24 19.5 24 C 16.360325 24 14 21.925636 14 19.582031 C 14 17.239644 16.360511 15.166016 19.5 15.166016 z M 16.986328 17.429688 C 16.396328 17.429687 15.921875 17.906141 15.921875 18.494141 C 15.921875 19.082141 16.397328 19.560547 16.986328 19.560547 C 17.573328 19.560547 18.051734 19.082141 18.052734 18.494141 C 18.052734 17.906141 17.574328 17.429688 16.986328 17.429688 z M 22.033203 17.429688 C 21.446203 17.429687 20.96875 17.906141 20.96875 18.494141 C 20.96875 19.082141 21.445203 19.560547 22.033203 19.560547 C 22.622203 19.560547 23.101562 19.082141 23.101562 18.494141 C 23.101563 17.906141 22.622203 17.429688 22.033203 17.429688 z"/></svg>