<?xml version="1.0" encoding="UTF-8"?>
<svg xmlns="http://www.w3.org/2000/svg" xmlns:xlink="http://www.w3.org/1999/xlink" viewBox="0 0 480 480" width="480px" height="480px">
<g id="surface4915163">
<rect x="0" y="0" width="480" height="480" style="fill:rgb(6.27451%,5.882353%,5.882353%);fill-opacity:1;stroke:none;"/>
<path style=" stroke:none;fill-rule:nonzero;fill:rgb(98.039216%,95.686275%,95.686275%);fill-opacity:1;" d="M 189.738281 315 C 189.738281 323.28125 183.03125 330 174.738281 330 C 166.449219 330 159.738281 323.28125 159.738281 315 L 159.738281 175 C 159.738281 168.46875 163.96875 162.691406 170.191406 160.699219 C 176.441406 158.71875 183.210938 161 186.980469 166.328125 L 354.75 403.371094 C 406.167969 367.089844 440 307.351562 440 240 C 440 130 350 40 240 40 C 130 40 40 130 40 240 C 40 350 130 440 240 440 C 271.917969 440 302.058594 432.230469 328.898438 418.78125 L 189.738281 222.160156 Z M 289.738281 165 C 289.738281 156.71875 296.449219 150 304.738281 150 C 313.03125 150 319.738281 156.71875 319.738281 165 L 319.738281 303.398438 L 289.738281 261.128906 Z M 289.738281 165 "/>
</g>
</svg>
